<svg width="454" height="276" viewBox="0 0 454 276" fill="none" xmlns="http://www.w3.org/2000/svg">
<path d="M189.69 33.2749C188.771 33.1843 187.71 33.3523 187.041 32.7163C187.538 32.4109 188.157 32.4176 188.739 32.3803C190.478 32.2683 193.179 30.3923 194.385 32.3469C196.321 35.4816 190.742 33.3789 189.69 33.2749Z" fill="#5C4C3C"/>
<path d="M192.669 71.3673C192.357 71.4273 192.024 71.4833 191.788 71.6966C191.553 71.91 191.493 72.346 191.757 72.5233C191.845 72.582 191.952 72.602 192.057 72.6166C194.105 72.914 196.029 71.6793 197.731 70.502C198.889 69.6993 200.104 68.83 200.661 67.534C201.32 66.006 200.913 64.2433 201.152 62.5966C201.4 60.8913 202.329 59.374 203.2 57.8873C205.393 54.1446 207.4 49.962 206.887 45.6553C206.711 44.1873 206.248 42.7633 206.133 41.286C206.016 39.766 206.515 38.498 206.749 37.0246C206.764 36.9273 206.789 36.83 206.807 36.7326C209.399 37.4646 210.955 36.6966 212.709 35.6086C213.445 35.154 214.204 34.758 214.964 34.3633C216.203 33.7166 217.483 33.0486 218.667 32.13C222.199 29.3873 224.24 25.5793 224.128 21.9473C224.031 18.8033 222.341 15.618 219.496 13.21C216.884 11.002 213.679 9.68598 210.888 8.69131L210.432 8.52864C208.371 7.79798 206.241 7.04198 204.839 5.52598C202.236 2.70331 200.225 0.811314 196.169 0.236648C194.121 -0.0513517 192.048 0.004643 190.048 0.056645L188.648 0.0913129C187.377 0.115315 186.108 0.103311 184.835 0.0939781C182.173 0.0739789 179.417 0.0553124 176.701 0.339314C172.973 0.727314 169.908 1.63265 167.331 3.10598C165.623 4.08198 164.381 5.54064 163.181 6.95265C162.423 7.84198 161.705 8.68465 160.883 9.41131C159.216 10.8833 157.165 11.79 154.996 12.75C154.247 13.0793 153.497 13.4113 152.764 13.766C148.913 15.6353 146.559 17.986 145.763 20.7513C145.297 22.3686 145.343 24.2246 145.9 26.266C146.74 29.346 148.643 32.214 151.253 34.3433C152.464 35.3286 156.04 38.046 158.707 38.046C159.299 38.046 159.848 37.9113 160.313 37.5926L161.532 36.7406L160.233 36.1033C159.147 35.5686 158.093 35.0273 157.157 34.2646L156.501 33.7446C153.447 31.3447 147.087 26.3526 150.669 19.974C151.365 18.7326 152.765 17.9046 154.119 17.1046L154.477 16.8913C159.277 14.0326 164.915 12.334 171.709 11.6966C173.651 11.5153 178.905 11.2926 178.956 11.29L178.972 9.58331C178.895 9.57931 171.307 9.12865 169.104 8.46731C168.611 8.31931 168.532 8.18731 168.521 8.16465C168.509 8.13531 168.497 8.03798 168.543 7.87531C168.883 6.66331 171.884 5.55931 173.167 5.08731L173.559 4.94198C175.665 4.15132 177.853 3.64465 180.06 3.43398C182.345 3.22198 184.693 3.36598 186.965 3.50731C190.307 3.71531 194.092 3.95131 197.207 5.56732C197.501 5.71931 198.455 6.26331 198.42 6.88598C198.417 6.94998 198.231 8.48865 188.992 10.142C188.328 10.2606 187.64 10.3846 187.716 11.1793L187.82 11.9673L188.609 11.954C196.176 11.8153 204.577 12.8246 208.328 13.8673C210.597 14.4966 213.871 15.6006 216.085 17.9126C218.185 20.1006 218.92 23.2273 217.873 25.5166C217.253 26.874 216.36 27.814 215.423 28.0953C214.765 28.294 214.085 28.17 213.353 27.71C212.087 26.918 211.013 25.8193 209.879 24.658C208.787 23.542 207.656 22.3886 206.309 21.4833C203.659 19.7033 200.644 18.306 197.345 17.33C192.512 15.9006 187.032 15.3313 180.567 15.594C178.447 15.6793 175.841 16.034 174.515 18.0326L173.417 19.69L175.375 19.346C181.141 18.3366 187.22 19.0366 192.799 20.1406C193.892 20.8753 195.743 21.1753 196.931 21.714C198.224 22.3006 199.48 22.97 200.688 23.7153C202.079 24.574 203.547 25.7886 203.556 27.4233C203.565 29.1766 201.923 30.414 200.953 31.8753C199.604 33.91 199.585 36.746 200.909 38.798C202.069 40.594 203.517 42.9993 203.225 45.2446C203.019 46.8393 201.759 46.1366 200.769 46.478C199.501 46.914 199.115 48.478 197.956 49.1073C196.399 49.9526 194.413 49.5553 192.864 50.5713C192.547 50.7793 192.247 51.0526 192.144 51.418C191.904 52.2686 192.799 52.9633 193.511 53.4886C196.72 55.8553 198.237 60.2913 197.149 64.1273C196.947 64.8393 196.664 65.5393 196.625 66.278C196.596 66.866 196.724 67.454 196.663 68.0393C196.465 69.8873 194.495 71.0153 192.669 71.3673Z" fill="#5C4C3C"/>
<path d="M173.995 63.534C172.517 62.654 171.183 61.4633 169.893 60.3113C168.766 59.3073 167.603 58.2673 166.773 57.0393C165.886 55.726 165.398 54.1593 165.277 52.25L165.041 48.4607L163.631 51.986C163.138 53.222 163.393 54.6793 163.629 55.6687C163.695 55.9527 163.766 56.2167 163.831 56.4673C164.187 57.806 164.334 58.3593 163.551 59.2647C161.735 61.3673 159.081 63.2913 156.078 64.6833C154.081 65.6087 151.674 65.6887 149.549 65.758L131.437 66.3593C129.371 66.4273 127.237 66.4993 125.165 67.1407C122.181 68.0687 119.742 70.0673 117.69 71.8687C116.574 72.8473 113.182 75.8273 114.015 79.2887L114.235 80.202L115.126 79.8953C116.481 79.4287 117.183 78.2033 117.802 77.122L117.959 76.8473C118.881 75.266 120.053 73.8593 121.439 72.6673C122.854 71.4553 124.17 70.778 125.467 70.594C127.669 70.286 130.194 71.4967 131.885 73.694C133.517 75.8207 134.311 78.4913 134.983 81.0447L135.194 81.8473C135.833 84.31 136.495 86.8553 137.801 89.1367L139.981 92.9473L139.389 88.5967C138.702 83.55 137.163 78.6993 134.813 74.178C134.442 73.4647 134.067 72.6647 134.323 72.1713C134.493 71.8367 134.986 71.6073 135.49 71.4087C139.013 70.026 142.873 69.4153 146.65 69.6167C147.329 69.654 148.011 69.718 148.693 69.7807C150.423 69.9433 152.213 70.1113 154.01 69.8593C154.862 69.7407 155.687 69.5313 156.485 69.3287C157.07 69.1793 157.658 69.03 158.254 68.9193C163.251 67.9887 168.651 70.1127 171.677 74.202L172.355 75.1167L173.045 74.2113C173.805 73.2127 173.677 71.8087 172.686 70.2567C171.849 68.946 170.835 67.7607 169.674 66.73C169.47 66.5487 169.338 66.4007 169.255 66.298C169.349 66.2967 169.442 66.298 169.534 66.3073C170.071 66.358 170.617 66.5633 171.194 66.782L171.601 66.9327C173.029 67.45 174.517 67.7847 176.023 67.926L176.949 68.014L176.958 67.086C176.978 65.3073 175.319 64.3207 173.995 63.534Z" fill="#5C4C3C"/>
<path d="M224.882 88.8096C221.465 83.6936 211.674 80.4069 208.458 79.3269C207.881 79.1322 207.286 78.9416 206.692 78.7496C205.213 78.2709 203.686 77.7789 202.478 77.2602C202.336 77.1989 202.204 77.1402 202.08 77.0856C203.686 77.0922 205.925 77.1789 207.441 77.2376C209.865 77.3336 210.125 77.3416 210.173 76.4869C210.225 75.6296 209.82 75.5962 207.866 75.4402C207.084 75.3776 206.274 75.3216 205.468 75.2682C204.066 75.1722 202.665 75.0789 201.406 74.9376C198.48 74.6122 196.602 74.0669 194.945 73.5856L194.732 73.5509C194.008 73.5216 192.701 73.6402 192.189 73.8922L191.674 74.1642L191.697 74.7202C191.742 75.8402 195.838 77.5682 195.881 77.5842L200.22 79.3002C202.005 80.0056 203.79 80.7109 205.712 81.4056L206.388 81.6482C209.984 82.9349 218.402 85.9469 223.653 89.9629L227.742 93.0922L224.882 88.8096Z" fill="#5C4C3C"/>
<path d="M193.295 212.41C193.178 212.322 193.059 212.234 192.939 212.148C190.994 210.743 188.808 209.672 186.508 208.984C186.262 209.599 186.015 210.21 185.772 210.814C187.475 212.89 189.896 214.324 192.032 216.034C192.478 214.738 192.902 213.523 193.295 212.41Z" fill="#5C4C3C"/>
<path d="M205.915 200.815C204.994 200.857 204.097 200.503 203.286 200.062C201.113 198.881 199.211 196.997 196.762 196.655C200.003 199.703 202.585 203.45 204.281 207.563C204.451 207.978 204.613 208.407 204.686 208.846C205.489 206.343 206.411 203.462 207.434 200.27C207.006 200.598 206.458 200.79 205.915 200.815Z" fill="#5C4C3C"/>
<path d="M248.361 168.573C243.661 160.258 244.601 153.652 248.759 155.758C255.656 159.253 266.752 178.328 267.067 181.462C263.677 174.12 249.895 161.068 250.951 167.168C251.88 172.533 260.563 186.378 269.023 192.097C262.157 189.044 253.699 178.017 248.361 168.573ZM230.853 126.87C241.389 93.6237 250.94 63.0198 252 57.9784C250.829 68.6598 253.811 64.3984 252.756 68.5584C249.427 81.7051 245.955 94.5824 242.455 106.974C242.137 106.738 241.765 106.573 241.353 106.508C239.931 106.285 238.588 107.321 238.353 108.821C238.117 110.321 239.081 111.718 240.503 111.941C240.683 111.969 240.86 111.977 241.035 111.966C240.812 112.746 240.588 113.524 240.365 114.298C240.113 114.157 239.835 114.056 239.536 114.009C238.113 113.786 236.771 114.822 236.535 116.322C236.3 117.822 237.263 119.218 238.685 119.441C238.747 119.45 238.808 119.456 238.871 119.461C238.712 120.004 236.907 126.138 236.897 126.172C235.423 131.638 232.936 129.102 230.853 126.87ZM240.677 110.828C239.871 110.701 239.328 109.878 239.467 108.996C239.605 108.112 240.373 107.496 241.179 107.621C241.985 107.748 242.528 108.57 242.389 109.453C242.251 110.337 241.483 110.954 240.677 110.828ZM238.86 118.328C238.053 118.202 237.511 117.38 237.649 116.496C237.787 115.612 238.556 114.996 239.361 115.122C240.167 115.248 240.711 116.07 240.572 116.954C240.433 117.838 239.665 118.454 238.86 118.328ZM226.935 139.805C228.473 140.045 229.515 141.59 229.255 143.248C228.996 144.905 227.532 146.057 225.993 145.816C224.453 145.574 223.413 144.03 223.672 142.373C223.932 140.716 225.395 139.564 226.935 139.805ZM225.445 154.724C225.187 156.38 223.723 157.533 222.184 157.292C220.644 157.05 219.604 155.506 219.863 153.849C220.123 152.192 221.585 151.04 223.125 151.28C224.665 151.521 225.705 153.066 225.445 154.724ZM221.092 168.394C220.833 170.05 219.369 171.204 217.829 170.962C216.291 170.721 215.249 169.177 215.509 167.52C215.769 165.862 217.232 164.71 218.771 164.952C220.311 165.192 221.352 166.737 221.092 168.394ZM231.427 58.4438C227.745 59.2464 224.368 59.6838 214.477 57.9558C217.745 57.3611 223.305 57.8171 225.008 57.6824C227.628 57.4771 230.228 57.0264 232.764 56.3331C236.971 55.1837 241.552 53.3944 245.493 55.2624C240.669 55.2544 236.139 57.4158 231.427 58.4438ZM272.655 187.3C269.532 179.009 258.689 161.056 250.353 155.329C242.112 149.668 243.439 158.797 245.199 164.356C237.552 170.954 226.012 184.088 220.159 197.053C222.495 188.566 246.865 101.036 252.151 80.1331C253.548 74.6104 258.547 62.2398 256.855 56.6504C255.731 52.9371 251.503 51.1411 247.635 50.8771C243.764 50.6131 239.931 51.6344 236.219 52.7598C232.507 53.8851 228.777 55.1331 224.904 55.3424C220.915 55.5584 216.957 54.6598 213.071 53.7371C210.361 53.0931 207.588 52.4291 204.819 52.7291C203.371 52.8851 201.973 53.3078 200.624 53.8411C198.705 54.5984 198.321 54.8691 199.979 56.3037C202.467 58.4584 205.693 60.3278 209.048 60.2957C212.565 60.2624 216.043 59.2398 219.559 59.9118C222.165 60.4091 224.753 61.1784 227.407 61.1464C230.225 61.1144 232.943 60.1837 235.685 59.5344C238.428 58.8864 241.395 58.5331 244 59.6091C244.569 59.8437 245.129 60.1597 245.497 60.6544C246.325 61.7717 245.913 63.3478 245.411 64.6451C242.361 72.5238 239.608 78.8904 235.852 88.0251C233.027 94.8957 211.761 146.673 194.848 188.362C196.203 188.83 197.481 189.509 198.743 190.196C201.743 191.83 204.767 193.582 207.019 196.153C207.5 196.704 207.955 197.37 208.141 198.061C210.547 190.553 213.436 181.533 216.569 171.729C216.905 171.896 217.268 172.016 217.656 172.076C219.812 172.413 221.849 170.844 222.205 168.569C222.555 166.342 221.163 164.27 219.081 163.866C219.693 161.95 220.311 160.016 220.933 158.064C221.267 158.226 221.627 158.345 222.009 158.405C224.167 158.742 226.203 157.173 226.56 154.898C226.908 152.673 225.519 150.604 223.441 150.197C223.831 148.974 224.221 147.748 224.612 146.518C224.98 146.718 225.385 146.861 225.819 146.929C227.975 147.268 230.012 145.697 230.368 143.422C230.725 141.148 229.265 139.029 227.109 138.692C227.107 138.69 227.104 138.69 227.103 138.69C228.081 135.612 229.057 132.534 230.028 129.473C230.064 129.541 235.549 131.256 233.851 136.328C218.541 186.761 204.451 224.166 201.195 229.496C202.7 226.31 203.943 219.664 201.42 219.068C201.783 217.916 202.685 215.094 204.001 210.985C203.772 211.209 203.501 211.389 203.2 211.5C202.353 211.813 201.329 211.577 200.704 210.924C201.281 211.606 201.872 212.313 202.143 213.165C202.413 214.017 202.285 215.06 201.6 215.632C200.98 216.149 200.081 216.161 199.292 215.996C197.295 215.574 195.672 214.249 194.04 212.98C193.764 214.205 193.461 215.549 193.139 216.982C193.656 217.46 194.145 217.964 194.583 218.517C195.245 219.358 195.781 220.569 195.175 221.452C194.615 222.265 193.419 222.284 192.461 222.042C192.313 222.005 192.169 221.962 192.025 221.917C190.353 229.328 188.416 237.897 186.944 244.365C183.717 258.546 196.416 258.726 201.263 249.626C220.512 213.476 218.1 201.358 235.087 181.685C243.121 172.381 246.804 174.668 248.147 175.078C249.491 175.49 253.135 180.488 248.053 182.106C240.491 184.514 232.156 187.906 217.613 227.438C205.087 261.493 189.435 269.906 184.239 263.258C179.629 257.36 185.375 236.268 190.301 221.197C188.359 220.177 186.659 218.616 184.873 217.29C184.439 216.968 183.993 216.66 183.544 216.36C175.445 237.536 170.476 265.738 180.964 272.604C194.697 281.596 214.089 267.933 221.785 249.621C229.483 231.31 247.385 194.073 262.737 189.838C272.58 197.561 274.627 192.537 272.655 187.3Z" fill="#5C4C3C"/>
<path d="M30.578 185.571V83.0638H27.202V187.628C27.202 190.757 26.2966 193.228 24.486 195.039C28.5473 192.844 30.578 189.687 30.578 185.571ZM9.17131 193.228C7.68865 191.361 6.94731 188.947 6.94731 185.983V165.728H3.57265V184.088C3.57265 187.987 5.43665 191.033 9.17131 193.228ZM41.5273 83.0638H37.33V183.429C37.33 187.765 35.6273 191.389 32.2233 194.297C28.6553 197.372 24.1553 198.908 18.722 198.908C13.2873 198.908 8.81398 197.372 5.30198 194.297C1.89665 191.389 0.195312 187.765 0.195312 183.429V162.681H13.6993V189.852C13.6993 193.859 15.374 195.861 18.722 195.861C22.1233 195.861 23.8273 193.859 23.8273 189.852V83.0638H19.5446V80.0172H41.5273V83.0638Z" fill="#5C4C3C"/>
<path d="M76.9329 195.039V123.573C76.9329 118.852 74.9569 115.257 71.0035 112.787C72.7049 114.708 73.5555 117.508 73.5555 121.185V195.039H76.9329ZM70.3462 192.651V150.743H66.4755C62.1942 150.743 60.0542 152.965 60.0542 157.412V189.111C60.0542 193.392 61.5635 195.533 64.5822 195.533C66.5035 195.533 68.4235 194.573 70.3462 192.651ZM56.1849 114.597C52.4515 117.123 50.5849 120.773 50.5849 125.548V134.193H53.9609V123.573C53.9609 119.732 54.7035 116.739 56.1849 114.597ZM56.6795 195.861C54.5382 193.721 53.4675 190.757 53.4675 186.969V161.117C53.4675 157.44 54.2089 154.531 55.6915 152.389C51.9569 154.312 50.0915 157.905 50.0915 163.175V185.076C50.0915 191.115 52.2862 194.709 56.6795 195.861ZM87.7169 198.085H70.3462V195.697C67.8769 197.839 64.7195 198.908 60.8769 198.908C51.5449 198.908 46.8809 193.749 46.8809 183.429V163.999C46.8809 153.131 53.3555 147.697 66.3115 147.697H70.3462V119.373C70.3462 114.873 68.6995 112.621 65.4049 112.621C62.1662 112.621 60.5475 114.873 60.5475 119.373V137.24H47.3755V126.784C47.3755 121.569 49.0075 117.399 52.2742 114.269C55.5395 111.14 59.9155 109.576 65.4049 109.576C70.9489 109.576 75.3409 111.14 78.5782 114.269C81.8169 117.399 83.4382 121.569 83.4382 126.784V195.039H87.7169V198.085Z" fill="#5C4C3C"/>
<path d="M122.627 174.29H119.252V195.039H122.627V174.29ZM98.6667 113.445H95.2921V134.194H98.6667V113.445ZM121.968 113.445H118.592L94.6334 195.039H98.0094L121.968 113.445ZM128.472 198.085H91.4214V195.039L115.381 113.445H104.596V137.239H92.0801V110.399H128.472V113.445L104.596 195.039H116.04V171.243H128.472V198.085Z" fill="#5C4C3C"/>
<path d="M166.1 174.29H162.725V195.039H166.1V174.29ZM142.141 113.445H138.767V134.194H142.141V113.445ZM165.441 113.445H162.067L138.107 195.039H141.484L165.441 113.445ZM171.945 198.085H134.895V195.039L158.855 113.445H148.071V137.239H135.555V110.399H171.945V113.445L148.071 195.039H159.513V171.243H171.945V198.085Z" fill="#5C4C3C"/>
<path d="M325.31 184.418V165.728H321.934V186.806C321.934 190.21 321.029 192.954 319.218 195.039C323.279 192.459 325.31 188.919 325.31 184.418ZM325.31 112.458V93.6855C325.31 89.1855 323.279 85.6442 319.218 83.0629C321.029 85.1509 321.934 87.9215 321.934 91.3789V112.458H325.31ZM300.526 193.062C299.046 190.922 298.305 188.206 298.305 184.912V93.1909C298.305 89.9535 299.046 87.2629 300.526 85.1229C296.794 87.6482 294.927 91.0229 294.927 95.2495V182.936C294.927 187.108 296.794 190.483 300.526 193.062ZM332.059 181.7C332.059 186.422 330.086 190.47 326.133 193.844C322.181 197.22 317.405 198.908 311.807 198.908C306.261 198.908 301.501 197.22 297.522 193.844C293.541 190.47 291.553 186.422 291.553 181.7V96.4015C291.553 91.6829 293.541 87.6335 297.522 84.2575C301.501 80.8815 306.261 79.1949 311.807 79.1949C317.405 79.1949 322.181 80.8815 326.133 84.2575C330.086 87.6335 332.059 91.6829 332.059 96.4015V115.422H318.558V88.9922C318.558 87.1269 317.899 85.5335 316.582 84.2175C315.265 82.8989 313.673 82.2402 311.807 82.2402C309.941 82.2402 308.347 82.8989 307.031 84.2175C305.714 85.5335 305.055 87.1269 305.055 88.9922V189.111C305.055 190.978 305.714 192.568 307.031 193.887C308.347 195.203 309.941 195.862 311.807 195.862C313.673 195.862 315.265 195.203 316.582 193.887C317.899 192.568 318.558 190.978 318.558 189.111V162.68H332.059V181.7Z" fill="#5C4C3C"/>
<path d="M370.841 195.039V123.573C370.841 118.852 368.865 115.257 364.911 112.787C366.613 114.708 367.463 117.508 367.463 121.185V195.039H370.841ZM364.254 192.651V150.743H360.383C356.102 150.743 353.962 152.965 353.962 157.412V189.111C353.962 193.392 355.471 195.533 358.49 195.533C360.411 195.533 362.331 194.573 364.254 192.651ZM350.093 114.597C346.358 117.123 344.493 120.773 344.493 125.548V134.193H347.869V123.573C347.869 119.732 348.61 116.739 350.093 114.597ZM350.587 195.861C348.445 193.721 347.375 190.757 347.375 186.969V161.117C347.375 157.44 348.117 154.531 349.598 152.389C345.865 154.312 343.998 157.905 343.998 163.175V185.076C343.998 191.115 346.194 194.709 350.587 195.861ZM381.625 198.085H364.254V195.697C361.783 197.839 358.627 198.908 354.785 198.908C345.451 198.908 340.789 193.749 340.789 183.429V163.999C340.789 153.131 347.263 147.697 360.219 147.697H364.254V119.373C364.254 114.873 362.606 112.621 359.313 112.621C356.073 112.621 354.455 114.873 354.455 119.373V137.24H341.283V126.784C341.283 121.569 342.915 117.399 346.182 114.269C349.447 111.14 353.823 109.576 359.313 109.576C364.857 109.576 369.249 111.14 372.486 114.269C375.725 117.399 377.345 121.569 377.345 126.784V195.039H381.625V198.085Z" fill="#5C4C3C"/>
<path d="M397.599 85.6166C393.922 88.1419 392.082 91.6259 392.082 96.0726V195.038H395.459V94.0139C395.459 90.5566 396.172 87.7566 397.599 85.6166ZM412.09 83.0633H407.891C403.994 83.0633 402.046 85.3153 402.046 89.8153V110.398H408.714V113.445H402.046V195.038H406.243V198.085H384.672V195.038H388.871V113.445H384.672V110.398H388.871V97.2259C388.871 92.4499 390.668 88.3886 394.264 85.0393C397.859 81.6926 402.402 80.0166 407.891 80.0166H412.09V83.0633Z" fill="#5C4C3C"/>
<path d="M446.506 184.418V174.29H443.13V186.806C443.13 190.483 442.225 193.283 440.413 195.203C444.475 192.624 446.506 189.028 446.506 184.418ZM446.506 152.554V124.066C446.506 119.456 444.475 115.862 440.413 113.28C442.225 115.203 443.13 118.002 443.13 121.679V152.554H446.506ZM439.918 152.554V119.374C439.918 114.874 437.97 112.622 434.073 112.622C430.121 112.622 428.145 114.874 428.145 119.374V152.554H439.918ZM423.782 193.392C422.299 191.251 421.558 188.424 421.558 184.912V123.574C421.558 120.06 422.299 117.232 423.782 115.092C420.047 117.672 418.182 121.158 418.182 125.548V182.936C418.182 187.327 420.047 190.812 423.782 193.392ZM453.091 181.7C453.091 186.531 451.293 190.607 447.699 193.927C444.103 197.25 439.561 198.908 434.073 198.908C428.585 198.908 424.029 197.25 420.405 193.927C416.783 190.607 414.971 186.531 414.971 181.7V126.783C414.971 121.954 416.783 117.879 420.405 114.556C424.029 111.236 428.585 109.576 434.073 109.576C439.561 109.576 444.103 111.236 447.699 114.556C451.293 117.879 453.091 121.954 453.091 126.783V155.6H428.145V189.111C428.145 193.612 430.121 195.862 434.073 195.862C437.97 195.862 439.918 193.612 439.918 189.111V171.244H453.091V181.7Z" fill="#5C4C3C"/>
</svg>
